<?xml version="1.0" encoding="UTF-8" standalone="no"?>
<!-- Created with Inkscape (http://www.inkscape.org/) -->

<svg
   xmlns:osb="http://www.openswatchbook.org/uri/2009/osb"
   xmlns:dc="http://purl.org/dc/elements/1.1/"
   xmlns:cc="http://creativecommons.org/ns#"
   xmlns:rdf="http://www.w3.org/1999/02/22-rdf-syntax-ns#"
   xmlns:svg="http://www.w3.org/2000/svg"
   xmlns="http://www.w3.org/2000/svg"
   xmlns:xlink="http://www.w3.org/1999/xlink"
   xmlns:sodipodi="http://sodipodi.sourceforge.net/DTD/sodipodi-0.dtd"
   xmlns:inkscape="http://www.inkscape.org/namespaces/inkscape"
   width="500mm"
   height="500mm"
   viewBox="0 0 1771.6535 1771.6535"
   id="svg2"
   version="1.1"
   inkscape:version="0.91 r13725"
   sodipodi:docname="cool.svg"
   inkscape:export-filename="C:\Users\marei_000\Desktop\cool.png"
   inkscape:export-xdpi="89.5"
   inkscape:export-ydpi="89.5">
  <defs
     id="defs4">
    <linearGradient
       inkscape:collect="always"
       id="linearGradient4165">
      <stop
         style="stop-color:#bcbcbc;stop-opacity:1;"
         offset="0"
         id="stop4167" />
      <stop
         style="stop-color:#bcbcbc;stop-opacity:0;"
         offset="1"
         id="stop4169" />
    </linearGradient>
    <linearGradient
       inkscape:collect="always"
       id="linearGradient5818">
      <stop
         style="stop-color:#000000;stop-opacity:1;"
         offset="0"
         id="stop5820" />
      <stop
         style="stop-color:#000000;stop-opacity:0"
         offset="1"
         id="stop5822" />
    </linearGradient>
    <linearGradient
       id="linearGradient5804"
       osb:paint="solid">
      <stop
         style="stop-color:#3a575c;stop-opacity:1;"
         offset="0"
         id="stop5806" />
    </linearGradient>
    <linearGradient
       inkscape:collect="always"
       id="linearGradient4138">
      <stop
         style="stop-color:#f7fdfc;stop-opacity:1"
         offset="0"
         id="stop4140" />
      <stop
         id="stop4161"
         offset="0.41887593"
         style="stop-color:#d7eaea;stop-opacity:1" />
      <stop
         id="stop4159"
         offset="0.74153107"
         style="stop-color:#acced0;stop-opacity:1" />
      <stop
         style="stop-color:#8db4b9;stop-opacity:1"
         offset="1"
         id="stop4142" />
    </linearGradient>
    <radialGradient
       inkscape:collect="always"
       xlink:href="#linearGradient4138"
       id="radialGradient4144"
       cx="601.3443"
       cy="-171.16931"
       fx="601.3443"
       fy="-171.16931"
       r="622.72729"
       gradientUnits="userSpaceOnUse"
       gradientTransform="matrix(-0.34590294,1.9013029,-1.7344087,-0.31553997,497.64136,-1279.7433)" />
    <radialGradient
       inkscape:collect="always"
       xlink:href="#linearGradient5818"
       id="radialGradient5826"
       cx="1435.311"
       cy="695.89551"
       fx="1435.311"
       fy="695.89551"
       r="188.31107"
       gradientTransform="matrix(1.3270006,0.70890285,-1.1284521,2.1123581,315.93727,-1784.8948)"
       gradientUnits="userSpaceOnUse" />
    <radialGradient
       inkscape:collect="always"
       xlink:href="#linearGradient5818"
       id="radialGradient5830"
       gradientUnits="userSpaceOnUse"
       gradientTransform="matrix(1.3270006,0.70890285,-1.1284521,2.1123581,315.93727,-1784.8948)"
       cx="1435.311"
       cy="695.89551"
       fx="1435.311"
       fy="695.89551"
       r="188.31107" />
    <radialGradient
       inkscape:collect="always"
       xlink:href="#linearGradient5818"
       id="radialGradient5832"
       gradientUnits="userSpaceOnUse"
       gradientTransform="matrix(1.3270006,0.70890285,-1.1284521,2.1123581,315.93727,-1784.8948)"
       cx="1435.311"
       cy="695.89551"
       fx="1435.311"
       fy="695.89551"
       r="188.31107" />
    <radialGradient
       inkscape:collect="always"
       xlink:href="#linearGradient5818"
       id="radialGradient5834"
       gradientUnits="userSpaceOnUse"
       gradientTransform="matrix(1.3270006,0.70890285,-1.1284521,2.1123581,315.93727,-1784.8948)"
       cx="1435.311"
       cy="695.89551"
       fx="1435.311"
       fy="695.89551"
       r="188.31107" />
    <radialGradient
       inkscape:collect="always"
       xlink:href="#linearGradient5818"
       id="radialGradient5836"
       gradientUnits="userSpaceOnUse"
       gradientTransform="matrix(1.3270006,0.70890285,-1.1284521,2.1123581,315.93727,-1784.8948)"
       cx="1435.311"
       cy="695.89551"
       fx="1435.311"
       fy="695.89551"
       r="188.31107" />
    <radialGradient
       inkscape:collect="always"
       xlink:href="#linearGradient5818"
       id="radialGradient5838"
       gradientUnits="userSpaceOnUse"
       gradientTransform="matrix(1.3270006,0.70890285,-1.1284521,2.1123581,315.93727,-1784.8948)"
       cx="1435.311"
       cy="695.89551"
       fx="1435.311"
       fy="695.89551"
       r="188.31107" />
    <linearGradient
       inkscape:collect="always"
       xlink:href="#linearGradient4165"
       id="linearGradient4171"
       x1="393.99872"
       y1="37.436184"
       x2="521.909"
       y2="244.93617"
       gradientUnits="userSpaceOnUse" />
    <linearGradient
       inkscape:collect="always"
       xlink:href="#linearGradient4165"
       id="linearGradient4179"
       x1="1257.4125"
       y1="44.93618"
       x2="1142.8228"
       y2="209.93617"
       gradientUnits="userSpaceOnUse" />
  </defs>
  <sodipodi:namedview
     id="base"
     pagecolor="#ffffff"
     bordercolor="#666666"
     borderopacity="1.0"
     inkscape:pageopacity="0.0"
     inkscape:pageshadow="2"
     inkscape:zoom="0.13995495"
     inkscape:cx="849.76987"
     inkscape:cy="868.12064"
     inkscape:document-units="px"
     inkscape:current-layer="layer1"
     showgrid="false"
     inkscape:window-width="1440"
     inkscape:window-height="900"
     inkscape:window-x="-8"
     inkscape:window-y="-8"
     inkscape:window-maximized="1" />
  <metadata
     id="metadata7">
    <rdf:RDF>
      <cc:Work
         rdf:about="">
        <dc:format>image/svg+xml</dc:format>
        <dc:type
           rdf:resource="http://purl.org/dc/dcmitype/StillImage" />
        <dc:title />
      </cc:Work>
    </rdf:RDF>
  </metadata>
  <g
     inkscape:label="Ebene 1"
     inkscape:groupmode="layer"
     id="layer1"
     transform="translate(0,719.29134)"
     style="display:inline">
    <circle
       style="fill:url(#radialGradient4144);fill-opacity:1;stroke:none;stroke-width:0;stroke-linejoin:round;stroke-miterlimit:4;stroke-dasharray:none;stroke-opacity:1"
       id="path4136"
       cx="834.99695"
       cy="275.18057"
       r="622.72729"
       inkscape:export-xdpi="90"
       inkscape:export-ydpi="90" />
    <path
       style="opacity:1;fill:#3a575c;fill-opacity:1;stroke:none;stroke-width:4;stroke-linejoin:round;stroke-miterlimit:4;stroke-dasharray:none;stroke-opacity:1"
       d="m 768.7003,675.45938 c -43.35503,-37.52204 20.45969,-20.07594 138.4524,-35.57196 117.9927,-15.49602 151.6482,-167.40053 141.1802,-65.69329 -10.7593,104.53552 -124.36933,123.49609 -124.36933,123.49609 0,0 -110.098,16.85789 -155.26327,-22.23084 z"
       id="path5048"
       inkscape:connector-curvature="0"
       sodipodi:nodetypes="ssscs"
       inkscape:export-xdpi="90"
       inkscape:export-ydpi="90" />
    <path
       style="fill:#000000;fill-opacity:1;stroke:none;stroke-width:2.5;stroke-linejoin:round;stroke-miterlimit:4;stroke-dasharray:none;stroke-opacity:1"
       d="m 805.25622,127.13285 c 0,132.99748 -125.43639,248.33865 -253.2723,248.33865 -127.8359,0 -231.4674,-107.81576 -231.4674,-240.81324 0,-132.9974763 101.95419,-135.45745237 229.7901,-135.45745237 127.83591,0 254.9496,-5.06543793 254.9496,127.93204237 z"
       id="path4288"
       inkscape:connector-curvature="0"
       sodipodi:nodetypes="sssss"
       inkscape:export-xdpi="90"
       inkscape:export-ydpi="90" />
    <path
       style="fill:url(#linearGradient4171);fill-opacity:1;stroke:none;stroke-width:2.5;stroke-linejoin:round;stroke-miterlimit:4;stroke-dasharray:none;stroke-opacity:1"
       d="m 550.30663,97.031225 c -25.30342,52.174125 -91.78591,98.341945 -140.89319,88.423605 -34.311,-6.92989 -65.41471,-15.1864 -65.41471,-73.37278 0,-58.186407 63.50747,-79.016857 119.08831,-79.016853 55.58082,3e-6 113.70972,9.344966 87.21959,63.966028 z"
       id="path4291"
       inkscape:connector-curvature="0"
       sodipodi:nodetypes="sssss"
       inkscape:export-xdpi="90"
       inkscape:export-ydpi="90" />
    <path
       sodipodi:nodetypes="sssss"
       inkscape:connector-curvature="0"
       id="path4299"
       d="m 849.06521,127.13285 c 0,132.99748 125.43639,248.33865 253.27229,248.33865 127.8359,0 231.4674,-107.81576 231.4674,-240.81324 0,-132.9974763 -101.9542,-135.45745237 -229.7901,-135.45745237 -127.83588,0 -254.94959,-5.06543793 -254.94959,127.93204237 z"
       style="fill:#000000;fill-opacity:1;stroke:none;stroke-width:2.5;stroke-linejoin:round;stroke-miterlimit:4;stroke-dasharray:none;stroke-opacity:1"
       inkscape:export-xdpi="90"
       inkscape:export-ydpi="90" />
    <path
       sodipodi:nodetypes="sssss"
       inkscape:connector-curvature="0"
       id="path4301"
       d="m 1104.0148,97.031225 c 25.3035,52.174125 91.7858,98.341945 140.8932,88.423605 34.311,-6.92989 65.4148,-15.1864 65.4148,-73.37278 0,-58.186407 -63.5076,-79.016857 -119.0885,-79.016853 -55.5807,3e-6 -113.7095,9.344966 -87.2195,63.966028 z"
       style="fill:url(#linearGradient4179);fill-opacity:1;stroke:none;stroke-width:2.5;stroke-linejoin:round;stroke-miterlimit:4;stroke-dasharray:none;stroke-opacity:1"
       inkscape:export-xdpi="90"
       inkscape:export-ydpi="90" />
    <rect
       style="fill:#000000;fill-opacity:1;stroke:none;stroke-width:2.5;stroke-linejoin:round;stroke-miterlimit:4;stroke-dasharray:none;stroke-opacity:1"
       id="rect4305"
       width="208.07484"
       height="37.342144"
       x="719.22961"
       y="44.857506"
       inkscape:export-xdpi="90"
       inkscape:export-ydpi="90" />
    <g
       id="g4345"
       style="fill:#000000;fill-opacity:1;stroke:url(#radialGradient5826);stroke-width:0.99999994;stroke-linecap:round;stroke-miterlimit:4;stroke-dasharray:none;stroke-opacity:1"
       transform="translate(-186.0866,-27.307552)"
       inkscape:export-xdpi="90"
       inkscape:export-ydpi="90">
      <path
         sodipodi:nodetypes="sssss"
         inkscape:connector-curvature="0"
         id="ellipse4315"
         d="m 1556.425,659.93596 c 0,0 -59.5127,6.49731 -87.0242,-62.302 -26.402,-66.02506 -43.7981,-142.62403 12.8667,-158.46385 74.0716,-20.70564 79.0732,45.25261 100.7574,112.97395 23.9934,74.93326 14.8246,113.79232 -26.5999,107.7919 z"
         style="fill:#000000;fill-opacity:1;stroke:url(#radialGradient5830);stroke-width:0.99999994;stroke-linecap:round;stroke-linejoin:round;stroke-miterlimit:4;stroke-dasharray:none;stroke-opacity:1" />
      <ellipse
         ry="76.220932"
         rx="159.55762"
         cy="631.08319"
         cx="1493.0134"
         id="path4307"
         style="fill:#000000;fill-opacity:1;stroke:url(#radialGradient5832);stroke-width:0.99999994;stroke-linecap:round;stroke-linejoin:round;stroke-miterlimit:4;stroke-dasharray:none;stroke-opacity:1" />
      <ellipse
         style="fill:#000000;fill-opacity:1;stroke:url(#radialGradient5834);stroke-width:0.99999994;stroke-linecap:round;stroke-linejoin:round;stroke-miterlimit:4;stroke-dasharray:none;stroke-opacity:1"
         id="ellipse4309"
         cx="1483.7058"
         cy="730.03668"
         rx="166.20586"
         ry="76.220932" />
      <ellipse
         ry="68.197678"
         rx="156.89833"
         cy="831.66455"
         cx="1490.3541"
         id="ellipse4311"
         style="fill:#000000;fill-opacity:1;stroke:url(#radialGradient5836);stroke-width:0.99999994;stroke-linecap:round;stroke-linejoin:round;stroke-miterlimit:4;stroke-dasharray:none;stroke-opacity:1" />
      <ellipse
         transform="matrix(0.01562466,0.99987793,-0.99994421,0.01056321,0,0)"
         style="fill:#000000;fill-opacity:1;stroke:url(#radialGradient5838);stroke-width:1.00000632;stroke-linecap:round;stroke-linejoin:round;stroke-miterlimit:4;stroke-dasharray:none;stroke-opacity:1"
         id="ellipse4313"
         cx="744.30658"
         cy="-1595.4792"
         rx="139.07462"
         ry="86.079102" />
    </g>
    <path
       style="fill:#77a2a9;fill-opacity:1;stroke:#000000;stroke-width:2.5;stroke-linecap:round;stroke-linejoin:round;stroke-miterlimit:4;stroke-dasharray:none;stroke-opacity:0"
       d="m 1263.4996,869.01127 c -39.4706,-4.695 -78.973,-18.8381 -97.1212,-34.7724 -45.3377,-39.8071 5.2908,-84.9454 106.8278,-95.2431 15.2864,-1.5503 36.7934,-2.2495 47.7934,-1.5537 16.4382,1.0398 18.2191,0.8277 10,-1.1909 -12.6437,-3.1054 -61.6313,-0.7783 -87.6657,4.1644 -10.9089,2.0711 -28.5884,6.7987 -39.2878,10.5058 l -19.4535,6.7403 -11.2151,-5.4487 c -25.7798,-12.5248 -43.6326,-37.5866 -40.1185,-56.3184 2.2735,-12.1187 13.7936,-26.9084 28.0421,-36.001 34.9498,-22.303 110.3084,-36.5357 165.2868,-31.2171 13.6442,1.32 19.7501,1.1535 18.1031,-0.4935 -1.4449,-1.4449 -19.4826,-2.4762 -43.0884,-2.4636 -44.2868,0.024 -70.7702,3.9055 -104.6843,15.3448 l -19.0813,6.4362 -7.7841,-5.5428 c -17.845,-12.7067 -25.131,-38.0368 -16.2963,-56.6544 8.8526,-18.6556 42.1165,-39.6398 75.0017,-47.3141 2.6077,-0.6085 9.2625,-2.2104 14.7885,-3.5597 5.526,-1.3494 14.276,-2.7381 19.4446,-3.0862 7.4027,-0.4986 9.0427,-1.4521 7.7263,-4.4923 -5.7756,-13.3387 -9.029,-32.0797 -9.3499,-53.8593 -0.3301,-22.4111 0.279,-26.155 5.8818,-36.1532 10.3556,-18.4799 28.2725,-27.5552 54.4553,-27.5829 34.0241,-0.036 45.6864,15.4427 67.9553,90.1927 9.971,33.4697 11.218,39.8276 7.8471,40.0083 -2.2042,0.1182 -1.0533,1.1086 2.5577,2.201 15.614,4.7234 43.6048,21.9625 59.3907,36.5779 32.0479,29.6714 45.9759,66.9239 46.1765,123.5062 0.163,45.9396 -8.7565,77.2761 -30.3148,106.5056 -8.7996,11.9309 -35.3293,31.2285 -56.8178,41.3292 -38.7418,18.2106 -100.3505,25.9355 -155,19.4349 z m 124.0387,-332.472 c -13.0936,-5.2393 -52.9811,-9.7593 -82.7887,-9.3815 l -31.25,0.3962 41.25,1.9601 c 22.6875,1.0781 48,3.5614 56.25,5.5186 17.6833,4.1951 24.9005,4.8525 16.5387,1.5066 z"
       id="path5828"
       inkscape:connector-curvature="0"
       inkscape:export-xdpi="90"
       inkscape:export-ydpi="90" />
  </g>
  <g
     inkscape:groupmode="layer"
     id="layer2"
     inkscape:label="Ebene 2" />
</svg>
