<?xml version="1.0" encoding="UTF-8" standalone="no"?>
<!-- Created with Inkscape (http://www.inkscape.org/) -->

<svg
   xmlns:dc="http://purl.org/dc/elements/1.1/"
   xmlns:cc="http://creativecommons.org/ns#"
   xmlns:rdf="http://www.w3.org/1999/02/22-rdf-syntax-ns#"
   xmlns:svg="http://www.w3.org/2000/svg"
   xmlns="http://www.w3.org/2000/svg"
   xmlns:xlink="http://www.w3.org/1999/xlink"
   xmlns:sodipodi="http://sodipodi.sourceforge.net/DTD/sodipodi-0.dtd"
   xmlns:inkscape="http://www.inkscape.org/namespaces/inkscape"
   width="500mm"
   height="500mm"
   viewBox="0 0 1771.6535 1771.6535"
   id="svg2"
   version="1.1"
   inkscape:version="0.91 r13725"
   sodipodi:docname="enraging.svg"
   inkscape:export-filename="C:\Users\marei_000\Desktop\enraging.png"
   inkscape:export-xdpi="90"
   inkscape:export-ydpi="90">
  <defs
     id="defs4">
    <linearGradient
       inkscape:collect="always"
       id="linearGradient4198">
      <stop
         style="stop-color:#ffffff;stop-opacity:1;"
         offset="0"
         id="stop4200" />
      <stop
         style="stop-color:#ffffff;stop-opacity:0.23630136"
         offset="1"
         id="stop4202" />
    </linearGradient>
    <linearGradient
       inkscape:collect="always"
       id="linearGradient4186">
      <stop
         style="stop-color:#ffffff;stop-opacity:1;"
         offset="0"
         id="stop4188" />
      <stop
         style="stop-color:#e4e4e4;stop-opacity:1"
         offset="1"
         id="stop4190" />
    </linearGradient>
    <linearGradient
       inkscape:collect="always"
       id="linearGradient4180">
      <stop
         style="stop-color:#e4fafa;stop-opacity:1"
         offset="0"
         id="stop4182" />
      <stop
         style="stop-color:#bbcece;stop-opacity:1"
         offset="1"
         id="stop4184" />
    </linearGradient>
    <linearGradient
       inkscape:collect="always"
       id="linearGradient4138">
      <stop
         style="stop-color:#f7fdfc;stop-opacity:1"
         offset="0"
         id="stop4140" />
      <stop
         id="stop4161"
         offset="0.41887593"
         style="stop-color:#d7eaea;stop-opacity:1" />
      <stop
         id="stop4159"
         offset="0.74153107"
         style="stop-color:#acced0;stop-opacity:1" />
      <stop
         style="stop-color:#8db4b9;stop-opacity:1"
         offset="1"
         id="stop4142" />
    </linearGradient>
    <radialGradient
       inkscape:collect="always"
       xlink:href="#linearGradient4138"
       id="radialGradient4144"
       cx="601.3443"
       cy="-171.16931"
       fx="601.3443"
       fy="-171.16931"
       r="622.72729"
       gradientUnits="userSpaceOnUse"
       gradientTransform="matrix(-0.34590294,1.9013029,-1.7344087,-0.31553997,584.78368,-1454.1715)" />
    <linearGradient
       inkscape:collect="always"
       xlink:href="#linearGradient4180"
       id="linearGradient4178"
       x1="623.17072"
       y1="216.99631"
       x2="547.56097"
       y2="-61.05246"
       gradientUnits="userSpaceOnUse"
       gradientTransform="matrix(1.1910075,0,0,1.2928635,-38.156453,-76.439656)" />
    <linearGradient
       inkscape:collect="always"
       xlink:href="#linearGradient4186"
       id="linearGradient4192"
       x1="563.36249"
       y1="1.1775222"
       x2="602.27716"
       y2="188.98239"
       gradientUnits="userSpaceOnUse"
       gradientTransform="matrix(1.1910075,0,0,1.2928635,-38.156453,-76.439656)" />
    <linearGradient
       inkscape:collect="always"
       xlink:href="#linearGradient4198"
       id="linearGradient4204"
       x1="583.07629"
       y1="-57.952057"
       x2="583.51373"
       y2="109.12111"
       gradientUnits="userSpaceOnUse"
       gradientTransform="matrix(1.1910075,0,0,1.2928635,-38.156453,-76.439656)" />
    <filter
       inkscape:collect="always"
       style="color-interpolation-filters:sRGB"
       id="filter4560"
       x="-0.13026433"
       width="1.2605287"
       y="-0.1112351"
       height="1.2224702">
      <feGaussianBlur
         inkscape:collect="always"
         stdDeviation="15.041877"
         id="feGaussianBlur4562" />
    </filter>
    <filter
       inkscape:collect="always"
       style="color-interpolation-filters:sRGB"
       id="filter4722"
       x="-0.11332997"
       width="1.2266599"
       y="-0.096774535"
       height="1.1935491">
      <feGaussianBlur
         inkscape:collect="always"
         stdDeviation="13.086433"
         id="feGaussianBlur4724" />
    </filter>
    <linearGradient
       inkscape:collect="always"
       xlink:href="#linearGradient4180"
       id="linearGradient4754"
       gradientUnits="userSpaceOnUse"
       gradientTransform="matrix(-1.1910075,0,0,1.2928635,1854.9338,-76.439655)"
       x1="623.17072"
       y1="216.99631"
       x2="547.56097"
       y2="-61.05246" />
    <linearGradient
       inkscape:collect="always"
       xlink:href="#linearGradient4186"
       id="linearGradient4756"
       gradientUnits="userSpaceOnUse"
       gradientTransform="matrix(-1.1910075,0,0,1.2928635,1854.9338,-76.439655)"
       x1="563.36249"
       y1="1.1775222"
       x2="602.27716"
       y2="188.98239" />
    <linearGradient
       inkscape:collect="always"
       xlink:href="#linearGradient4198"
       id="linearGradient4758"
       gradientUnits="userSpaceOnUse"
       gradientTransform="matrix(-1.1910075,0,0,1.2928635,1854.9338,-76.439655)"
       x1="583.07629"
       y1="-57.952057"
       x2="583.51373"
       y2="109.12111" />
    <filter
       inkscape:collect="always"
       style="color-interpolation-filters:sRGB"
       id="filter4870"
       x="-0.13674428"
       width="1.2734886"
       y="-0.084429737"
       height="1.1688595">
      <feGaussianBlur
         inkscape:collect="always"
         stdDeviation="2.9647756"
         id="feGaussianBlur4872" />
    </filter>
    <filter
       inkscape:collect="always"
       style="color-interpolation-filters:sRGB"
       id="filter4918"
       x="-0.08886372"
       width="1.1777274"
       y="-0.25652018"
       height="1.5130404">
      <feGaussianBlur
         inkscape:collect="always"
         stdDeviation="9.0826264"
         id="feGaussianBlur4920" />
    </filter>
    <filter
       inkscape:collect="always"
       style="color-interpolation-filters:sRGB"
       id="filter4928"
       x="-0.198"
       width="1.396"
       y="-0.46200001"
       height="1.924">
      <feGaussianBlur
         inkscape:collect="always"
         stdDeviation="13.2"
         id="feGaussianBlur4930" />
    </filter>
  </defs>
  <sodipodi:namedview
     id="base"
     pagecolor="#ffffff"
     bordercolor="#666666"
     borderopacity="1.0"
     inkscape:pageopacity="0.0"
     inkscape:pageshadow="2"
     inkscape:zoom="0.34"
     inkscape:cx="626.74117"
     inkscape:cy="575.73404"
     inkscape:document-units="px"
     inkscape:current-layer="layer1"
     showgrid="false"
     inkscape:window-width="1440"
     inkscape:window-height="900"
     inkscape:window-x="-8"
     inkscape:window-y="-8"
     inkscape:window-maximized="1" />
  <metadata
     id="metadata7">
    <rdf:RDF>
      <cc:Work
         rdf:about="">
        <dc:format>image/svg+xml</dc:format>
        <dc:type
           rdf:resource="http://purl.org/dc/dcmitype/StillImage" />
        <dc:title />
      </cc:Work>
    </rdf:RDF>
  </metadata>
  <g
     inkscape:label="Ebene 1"
     inkscape:groupmode="layer"
     id="layer1"
     transform="translate(0,719.29134)">
    <circle
       style="fill:url(#radialGradient4144);fill-opacity:1;stroke:none;stroke-width:0;stroke-linejoin:round;stroke-miterlimit:4;stroke-dasharray:none;stroke-opacity:1"
       id="path4136"
       cx="922.13904"
       cy="100.75246"
       r="622.72729"
       inkscape:export-xdpi="90"
       inkscape:export-ydpi="90" />
    <path
       sodipodi:nodetypes="sssss"
       inkscape:connector-curvature="0"
       id="path4210"
       d="M 716.85804,38.837403 C 729.24991,144.38543 655.80596,231.26164 580.49441,231.26164 c -75.31156,1e-5 -139.39394,-143.727013 -139.39394,-249.999991 0,-133.545709 108.91747,-50.721028 181.81818,-31.818192 93.49337,24.242423 81.81818,-13.848725 93.93939,89.393946 z"
       style="opacity:1;fill:#146d6d;fill-opacity:1;stroke:none;stroke-width:0;stroke-linejoin:round;stroke-miterlimit:4;stroke-dasharray:none;stroke-opacity:1;filter:url(#filter4560)"
       transform="matrix(1.1910075,0,0,1.2928635,-36.579839,-76.583851)" />
    <path
       sodipodi:nodetypes="sssss"
       inkscape:connector-curvature="0"
       id="path4876"
       d="m 1055.5742,523.11855 c -47.8624,12.93627 -68.72861,6.58365 -116.42303,16.58131 -46.77023,9.80392 -79.13685,10.71187 -116.05741,14.01369 -42.06566,3.76195 50.28598,-70.27333 99.01698,-75.19607 48.48425,-4.89782 174.46476,33.51921 133.46346,44.60107 z"
       style="opacity:1;fill:#719fa5;fill-opacity:1;stroke:none;stroke-width:4;stroke-linejoin:round;stroke-miterlimit:4;stroke-dasharray:none;stroke-opacity:1;filter:url(#filter4918)" />
    <path
       sodipodi:nodetypes="sssss"
       inkscape:connector-curvature="0"
       id="path4564"
       d="M 716.85804,38.837403 C 729.24991,144.38543 655.80596,231.26164 580.49441,231.26164 c -75.31156,1e-5 -139.39394,-143.727013 -139.39394,-249.999991 0,-133.545709 108.91747,-50.721028 181.81818,-31.818192 93.49337,24.242423 81.81818,-13.848725 93.93939,89.393946 z"
       style="opacity:1;fill:#8cadad;fill-opacity:1;stroke:none;stroke-width:0;stroke-linejoin:round;stroke-miterlimit:4;stroke-dasharray:none;stroke-opacity:1;filter:url(#filter4722)"
       transform="matrix(1.1910075,0,0,1.2928635,-36.579839,-76.583851)" />
    <path
       style="opacity:1;fill:url(#linearGradient4178);fill-opacity:1;stroke:none;stroke-width:0;stroke-linejoin:round;stroke-miterlimit:4;stroke-dasharray:none;stroke-opacity:1"
       d="M 817.20345,-26.372389 C 831.96224,110.08681 744.48996,222.40589 654.79334,222.40589 c -89.69663,1e-5 -166.01922,-185.819416 -166.01922,-323.21587 0,-172.65638 129.72153,-65.57536 216.54681,-41.13658 111.3513,31.34214 97.44606,-17.9045 111.88252,115.574171 z"
       id="path4163"
       inkscape:connector-curvature="0"
       sodipodi:nodetypes="sssss" />
    <path
       style="opacity:1;fill:url(#linearGradient4192);fill-opacity:1;stroke:none;stroke-width:0;stroke-linejoin:round;stroke-miterlimit:4;stroke-dasharray:none;stroke-opacity:1"
       d="M 802.57947,-18.965569 C 816.0174,105.28052 736.37383,207.54704 654.70511,207.54704 c -81.66876,1e-5 -151.16048,-169.188568 -151.16048,-294.288033 0,-157.203617 118.11143,-59.706367 197.16581,-37.454857 101.38538,28.537025 88.72468,-16.30205 101.86903,105.230281 z"
       id="path4168"
       inkscape:connector-curvature="0"
       sodipodi:nodetypes="sssss" />
    <ellipse
       style="opacity:1;fill:#000000;fill-opacity:1;stroke:#ffffff;stroke-width:6.06338787;stroke-linejoin:round;stroke-miterlimit:4;stroke-dasharray:none;stroke-opacity:1"
       id="path4208"
       cx="677.93237"
       cy="78.760254"
       rx="74.338173"
       ry="80.695633" />
    <path
       sodipodi:nodetypes="sssss"
       inkscape:connector-curvature="0"
       id="path4194"
       d="M 796.67756,-13.399065 C 808.00805,91.361995 723.08906,113.45262 645.84969,114.52395 572.2781,115.54438 520.0259,35.9122 509.68041,-68.96887 c -17.42938,-176.69654 117.19339,-76.91775 204.00872,-48.92424 78.83138,25.419082 71.90545,2.02115 82.98843,104.494045 z"
       style="opacity:1;fill:url(#linearGradient4204);fill-opacity:1;stroke:none;stroke-width:0;stroke-linejoin:round;stroke-miterlimit:4;stroke-dasharray:none;stroke-opacity:1" />
    <path
       style="opacity:1;fill:#146d6d;fill-opacity:1;stroke:none;stroke-width:0;stroke-linejoin:round;stroke-miterlimit:4;stroke-dasharray:none;stroke-opacity:1;filter:url(#filter4560)"
       d="M 716.85804,38.837403 C 729.24991,144.38543 655.80596,231.26164 580.49441,231.26164 c -75.31156,1e-5 -139.39394,-143.727013 -139.39394,-249.999991 0,-133.545709 108.91747,-50.721028 181.81818,-31.818192 93.49337,24.242423 81.81818,-13.848725 93.93939,89.393946 z"
       id="path4742"
       inkscape:connector-curvature="0"
       sodipodi:nodetypes="sssss"
       transform="matrix(-1.1910075,0,0,1.2928635,1853.3572,-76.58385)" />
    <path
       style="opacity:1;fill:#8cadad;fill-opacity:1;stroke:none;stroke-width:0;stroke-linejoin:round;stroke-miterlimit:4;stroke-dasharray:none;stroke-opacity:1;filter:url(#filter4722)"
       d="M 716.85804,38.837403 C 729.24991,144.38543 655.80596,231.26164 580.49441,231.26164 c -75.31156,1e-5 -139.39394,-143.727013 -139.39394,-249.999991 0,-133.545709 108.91747,-50.721028 181.81818,-31.818192 93.49337,24.242423 81.81818,-13.848725 93.93939,89.393946 z"
       id="path4744"
       inkscape:connector-curvature="0"
       sodipodi:nodetypes="sssss"
       transform="matrix(-1.1910075,0,0,1.2928635,1853.3572,-76.58385)" />
    <path
       sodipodi:nodetypes="sssss"
       inkscape:connector-curvature="0"
       id="path4746"
       d="m 999.57399,-26.372388 c -14.7588,136.459198 72.71351,248.778278 162.41001,248.778278 89.6967,1e-5 166.0193,-185.819415 166.0193,-323.21587 0,-172.65638 -129.7216,-65.57536 -216.5468,-41.13658 -111.3513,31.34215 -97.4461,-17.9045 -111.88251,115.574172 z"
       style="opacity:1;fill:url(#linearGradient4754);fill-opacity:1;stroke:none;stroke-width:0;stroke-linejoin:round;stroke-miterlimit:4;stroke-dasharray:none;stroke-opacity:1" />
    <path
       sodipodi:nodetypes="sssss"
       inkscape:connector-curvature="0"
       id="path4748"
       d="m 1014.1979,-18.965568 c -13.4378,124.246088 66.2057,226.512608 147.8744,226.512608 81.6689,1e-5 151.1605,-169.188567 151.1605,-294.288033 0,-157.203617 -118.1115,-59.706367 -197.1658,-37.454847 -101.3854,28.537016 -88.7247,-16.30206 -101.8691,105.230272 z"
       style="opacity:1;fill:url(#linearGradient4756);fill-opacity:1;stroke:none;stroke-width:0;stroke-linejoin:round;stroke-miterlimit:4;stroke-dasharray:none;stroke-opacity:1" />
    <ellipse
       cy="78.760254"
       cx="-1138.8452"
       id="circle4750"
       style="opacity:1;fill:#000000;fill-opacity:1;stroke:#ffffff;stroke-width:6.06338787;stroke-linejoin:round;stroke-miterlimit:4;stroke-dasharray:none;stroke-opacity:1"
       transform="scale(-1,1)"
       rx="74.338173"
       ry="80.695633" />
    <path
       style="opacity:1;fill:url(#linearGradient4758);fill-opacity:1;stroke:none;stroke-width:0;stroke-linejoin:round;stroke-miterlimit:4;stroke-dasharray:none;stroke-opacity:1"
       d="m 1020.0999,-13.399064 c -11.3305,104.761059 73.5885,126.851684 150.8278,127.923014 73.5715,1.02043 125.8239,-78.611749 136.1694,-183.49282 17.4293,-176.69654 -117.1934,-76.91775 -204.0088,-48.92424 -78.8314,25.419083 -71.9054,2.02115 -82.9884,104.494046 z"
       id="path4752"
       inkscape:connector-curvature="0"
       sodipodi:nodetypes="sssss" />
    <ellipse
       style="opacity:1;fill:#bddede;fill-opacity:1;stroke:none;stroke-width:4;stroke-linejoin:round;stroke-miterlimit:4;stroke-dasharray:none;stroke-opacity:1;filter:url(#filter4928)"
       id="path4922"
       cx="942.85712"
       cy="552.36218"
       rx="80"
       ry="34.285713"
       transform="matrix(1.0433125,0,0,1.0433125,-42.817539,-21.067068)" />
    <path
       style="opacity:1;fill:#3a575c;fill-opacity:1;stroke:none;stroke-width:4;stroke-linejoin:round;stroke-miterlimit:4;stroke-dasharray:none;stroke-opacity:1"
       d="m 1075.5741,520.26141 c 24.5514,45.69489 -104.78763,-39.1799 -152.48205,-29.18224 -46.77023,9.80392 -87.06788,65.09611 -123.98844,68.39793 -42.06566,3.76195 71.41898,-96.03688 120.14998,-100.95962 48.48425,-4.89782 136.21831,24.32981 156.32051,61.74393 z"
       id="path4762"
       inkscape:connector-curvature="0"
       sodipodi:nodetypes="sssss" />
    <path
       style="opacity:1;fill:#cedde0;fill-opacity:1;stroke:none;stroke-width:4;stroke-linejoin:round;stroke-miterlimit:4;stroke-dasharray:none;stroke-opacity:1;filter:url(#filter4870)"
       d="m 830.1217,-97.333524 c 0,29.780068 -52.0348,36.23751 -52.0348,36.23751 0,0 26.5446,-4.496668 26.5446,-34.276721 0,-29.780055 -14.31174,-49.999995 -2.94118,-49.999995 11.37057,-1e-5 28.43138,18.25915 28.43138,48.039206 z"
       id="path4859"
       inkscape:connector-curvature="0"
       sodipodi:nodetypes="scsss"
       transform="matrix(1.0606093,0.1886417,-0.17377989,1.1513135,-38.119772,-196.11575)" />
    <path
       sodipodi:nodetypes="scsss"
       inkscape:connector-curvature="0"
       id="path4874"
       d="m 835.29411,-109.40249 c 0,29.780069 -52.0348,36.237511 -52.0348,36.237511 0,0 26.5446,-4.496668 26.5446,-34.276721 0,-29.78006 -14.31174,-50 -2.94118,-50 11.37057,-1e-5 28.43138,18.25915 28.43138,48.03921 z"
       style="opacity:1;fill:#cedde0;fill-opacity:1;stroke:none;stroke-width:4;stroke-linejoin:round;stroke-miterlimit:4;stroke-dasharray:none;stroke-opacity:1;filter:url(#filter4870)"
       transform="matrix(-1.0471706,0.26260893,0.24191974,1.1367256,1856.2281,-242.68445)" />
  </g>
</svg>
