<?xml version="1.0" encoding="UTF-8" standalone="no"?>
<!-- Created with Inkscape (http://www.inkscape.org/) -->

<svg
   xmlns:dc="http://purl.org/dc/elements/1.1/"
   xmlns:cc="http://creativecommons.org/ns#"
   xmlns:rdf="http://www.w3.org/1999/02/22-rdf-syntax-ns#"
   xmlns:svg="http://www.w3.org/2000/svg"
   xmlns="http://www.w3.org/2000/svg"
   xmlns:xlink="http://www.w3.org/1999/xlink"
   xmlns:sodipodi="http://sodipodi.sourceforge.net/DTD/sodipodi-0.dtd"
   xmlns:inkscape="http://www.inkscape.org/namespaces/inkscape"
   width="500mm"
   height="500mm"
   viewBox="0 0 1771.6535 1771.6535"
   id="svg2"
   version="1.1"
   inkscape:version="0.91 r13725"
   sodipodi:docname="sad.svg">
  <defs
     id="defs4">
    <linearGradient
       inkscape:collect="always"
       id="linearGradient5021">
      <stop
         style="stop-color:#f3fcfc;stop-opacity:1"
         offset="0"
         id="stop5023" />
      <stop
         style="stop-color:#e8fafa;stop-opacity:1"
         offset="1"
         id="stop5025" />
    </linearGradient>
    <linearGradient
       id="linearGradient4987"
       inkscape:collect="always">
      <stop
         id="stop4989"
         offset="0"
         style="stop-color:#ffffff;stop-opacity:1;" />
      <stop
         id="stop4991"
         offset="1"
         style="stop-color:#e9e9e9;stop-opacity:1" />
    </linearGradient>
    <linearGradient
       id="linearGradient4977"
       inkscape:collect="always">
      <stop
         id="stop4979"
         offset="0"
         style="stop-color:#e4fafa;stop-opacity:1" />
      <stop
         id="stop4981"
         offset="1"
         style="stop-color:#8bafb6;stop-opacity:1" />
    </linearGradient>
    <linearGradient
       inkscape:collect="always"
       id="linearGradient4198">
      <stop
         style="stop-color:#ffffff;stop-opacity:1;"
         offset="0"
         id="stop4200" />
      <stop
         style="stop-color:#ffffff;stop-opacity:0.23630136"
         offset="1"
         id="stop4202" />
    </linearGradient>
    <linearGradient
       inkscape:collect="always"
       id="linearGradient4138">
      <stop
         style="stop-color:#f7fdfc;stop-opacity:1"
         offset="0"
         id="stop4140" />
      <stop
         id="stop4161"
         offset="0.41887593"
         style="stop-color:#d7eaea;stop-opacity:1" />
      <stop
         id="stop4159"
         offset="0.74153107"
         style="stop-color:#acced0;stop-opacity:1" />
      <stop
         style="stop-color:#8db4b9;stop-opacity:1"
         offset="1"
         id="stop4142" />
    </linearGradient>
    <radialGradient
       inkscape:collect="always"
       xlink:href="#linearGradient4138"
       id="radialGradient4144"
       cx="601.3443"
       cy="-171.16931"
       fx="601.3443"
       fy="-171.16931"
       r="622.72729"
       gradientUnits="userSpaceOnUse"
       gradientTransform="matrix(-0.34590294,1.9013029,-1.7344087,-0.31553997,560.31523,-1463.4121)" />
    <filter
       inkscape:collect="always"
       style="color-interpolation-filters:sRGB"
       id="filter4870"
       x="-0.13674428"
       width="1.2734886"
       y="-0.084429737"
       height="1.1688595">
      <feGaussianBlur
         inkscape:collect="always"
         stdDeviation="2.9647756"
         id="feGaussianBlur4872" />
    </filter>
    <filter
       inkscape:collect="always"
       style="color-interpolation-filters:sRGB"
       id="filter4918"
       x="-0.08886372"
       width="1.1777274"
       y="-0.25652018"
       height="1.5130404">
      <feGaussianBlur
         inkscape:collect="always"
         stdDeviation="9.0826264"
         id="feGaussianBlur4920" />
    </filter>
    <filter
       inkscape:collect="always"
       style="color-interpolation-filters:sRGB"
       id="filter4928"
       x="-0.198"
       width="1.396"
       y="-0.46200001"
       height="1.924">
      <feGaussianBlur
         inkscape:collect="always"
         stdDeviation="13.2"
         id="feGaussianBlur4930" />
    </filter>
    <linearGradient
       inkscape:collect="always"
       xlink:href="#linearGradient4987"
       id="linearGradient4941"
       x1="579.36505"
       y1="-79.781151"
       x2="627.914"
       y2="123.39344"
       gradientUnits="userSpaceOnUse"
       gradientTransform="matrix(1.1030651,-0.1264261,0.1264261,1.1030651,-38.485051,48.09006)" />
    <linearGradient
       inkscape:collect="always"
       xlink:href="#linearGradient4977"
       id="linearGradient4945"
       gradientUnits="userSpaceOnUse"
       x1="618.05231"
       y1="231.14986"
       x2="626.42755"
       y2="-118.6328"
       gradientTransform="matrix(1.1612117,-0.1330905,0.1330905,1.1612117,-71.397071,47.639006)" />
    <filter
       inkscape:collect="always"
       style="color-interpolation-filters:sRGB"
       id="filter4973"
       x="-0.072813208"
       width="1.1456264"
       y="-0.052781683"
       height="1.1055634">
      <feGaussianBlur
         inkscape:collect="always"
         stdDeviation="9.8965883"
         id="feGaussianBlur4975" />
    </filter>
    <linearGradient
       inkscape:collect="always"
       xlink:href="#linearGradient4198"
       id="linearGradient4985"
       gradientUnits="userSpaceOnUse"
       x1="579.36505"
       y1="-79.781151"
       x2="620.24908"
       y2="127.22591"
       gradientTransform="matrix(0.91371707,-0.10472427,0.10472427,0.91371707,80.713062,25.757001)" />
    <linearGradient
       inkscape:collect="always"
       xlink:href="#linearGradient4977"
       id="linearGradient5007"
       gradientUnits="userSpaceOnUse"
       gradientTransform="matrix(-1.1596842,-0.14580214,-0.14580214,1.1596842,1830.9947,57.83835)"
       x1="618.05231"
       y1="231.14986"
       x2="626.42755"
       y2="-118.6328" />
    <linearGradient
       inkscape:collect="always"
       xlink:href="#linearGradient4987"
       id="linearGradient5009"
       gradientUnits="userSpaceOnUse"
       x1="579.36505"
       y1="-79.781151"
       x2="627.914"
       y2="123.39344"
       gradientTransform="matrix(-1.101614,-0.13850122,-0.13850122,1.101614,1798.0796,57.928862)" />
    <linearGradient
       inkscape:collect="always"
       xlink:href="#linearGradient4198"
       id="linearGradient5011"
       gradientUnits="userSpaceOnUse"
       gradientTransform="matrix(-0.91251513,-0.11472663,-0.11472663,0.91251513,1679.1333,34.291479)"
       x1="579.36505"
       y1="-79.781151"
       x2="620.24908"
       y2="127.22591" />
    <linearGradient
       inkscape:collect="always"
       xlink:href="#linearGradient5021"
       id="linearGradient5027"
       x1="532.03656"
       y1="279.4028"
       x2="599.91107"
       y2="390.51392"
       gradientUnits="userSpaceOnUse" />
  </defs>
  <sodipodi:namedview
     id="base"
     pagecolor="#ffffff"
     bordercolor="#666666"
     borderopacity="1.0"
     inkscape:pageopacity="0.0"
     inkscape:pageshadow="2"
     inkscape:zoom="0.36"
     inkscape:cx="754.27147"
     inkscape:cy="700.14623"
     inkscape:document-units="px"
     inkscape:current-layer="layer1"
     showgrid="false"
     inkscape:window-width="1440"
     inkscape:window-height="900"
     inkscape:window-x="-8"
     inkscape:window-y="-8"
     inkscape:window-maximized="1" />
  <metadata
     id="metadata7">
    <rdf:RDF>
      <cc:Work
         rdf:about="">
        <dc:format>image/svg+xml</dc:format>
        <dc:type
           rdf:resource="http://purl.org/dc/dcmitype/StillImage" />
        <dc:title></dc:title>
      </cc:Work>
    </rdf:RDF>
  </metadata>
  <g
     inkscape:label="Ebene 1"
     inkscape:groupmode="layer"
     id="layer1"
     transform="translate(0,719.29134)">
    <circle
       style="fill:url(#radialGradient4144);fill-opacity:1;stroke:none;stroke-width:0;stroke-linejoin:round;stroke-miterlimit:4;stroke-dasharray:none;stroke-opacity:1"
       id="path4136"
       cx="897.6709"
       cy="91.511864"
       r="622.72729"
       inkscape:export-xdpi="90"
       inkscape:export-ydpi="90" />
    <path
       sodipodi:nodetypes="sssss"
       inkscape:connector-curvature="0"
       id="path4876"
       d="m 1055.5742,523.11855 c -47.8624,12.93627 -68.72861,6.58365 -116.42303,16.58131 -46.77023,9.80392 -79.13685,10.71187 -116.05741,14.01369 -42.06566,3.76195 50.28598,-70.27333 99.01698,-75.19607 48.48425,-4.89782 174.46476,33.51921 133.46346,44.60107 z"
       style="opacity:1;fill:#719fa5;fill-opacity:1;stroke:none;stroke-width:4;stroke-linejoin:round;stroke-miterlimit:4;stroke-dasharray:none;stroke-opacity:1;filter:url(#filter4918)" />
    <ellipse
       style="opacity:1;fill:#bddede;fill-opacity:1;stroke:none;stroke-width:4;stroke-linejoin:round;stroke-miterlimit:4;stroke-dasharray:none;stroke-opacity:1;filter:url(#filter4928)"
       id="path4922"
       cx="942.85712"
       cy="552.36218"
       rx="80"
       ry="34.285713"
       transform="matrix(1.0433125,0,0,1.0433125,-42.817539,-21.067068)" />
    <path
       style="opacity:1;fill:#3a575c;fill-opacity:1;stroke:none;stroke-width:4;stroke-linejoin:round;stroke-miterlimit:4;stroke-dasharray:none;stroke-opacity:1"
       d="m 1075.5741,520.26141 c 24.5514,45.69489 -104.78763,-39.1799 -152.48205,-29.18224 -46.77023,9.80392 -87.06788,65.09611 -123.98844,68.39793 -42.06566,3.76195 72.70475,-88.79847 120.14998,-100.95962 50.07155,-12.83433 136.21831,24.32981 156.32051,61.74393 z"
       id="path4762"
       inkscape:connector-curvature="0"
       sodipodi:nodetypes="sssss" />
    <path
       style="opacity:1;fill:#cedde0;fill-opacity:1;stroke:none;stroke-width:4;stroke-linejoin:round;stroke-miterlimit:4;stroke-dasharray:none;stroke-opacity:1;filter:url(#filter4870)"
       d="m 821.95158,-102.22425 c 0,29.780072 -43.86468,41.128236 -43.86468,41.128236 0,0 26.5446,-4.496668 26.5446,-34.276721 0,-29.780055 -14.31174,-49.999995 -2.94118,-49.999995 11.37057,-1e-5 20.26126,13.36843 20.26126,43.14848 z"
       id="path4859"
       inkscape:connector-curvature="0"
       sodipodi:nodetypes="scsss"
       transform="matrix(1.2055801,0.57257384,-0.57257384,1.2055801,-206.42224,-685.99653)" />
    <path
       style="opacity:1;fill:#9abebe;fill-opacity:1;stroke:none;stroke-width:4;stroke-linejoin:round;stroke-miterlimit:4;stroke-dasharray:none;stroke-opacity:1;filter:url(#filter4973)"
       d="m 773.843,-106.18249 c -5.80277,92.582292 -65.763,318.86217 -149.10176,318.86217 -83.33875,0 -176.04784,-120.110223 -176.04784,-212.87418174 0,-92.76396026 56.34387,-123.80460826 140.11972,-167.96401826 62.90546,-33.15831 199.40113,-167.31481 185.02988,61.97603 z"
       id="path4957"
       inkscape:connector-curvature="0"
       sodipodi:nodetypes="sssss"
       transform="matrix(1.1268789,-0.1291555,0.1291555,1.1268789,-47.891988,55.467057)" />
    <path
       sodipodi:nodetypes="sssss"
       inkscape:connector-curvature="0"
       id="path4943"
       d="M 794.44705,-153.39403 C 799.38068,-57.718078 764.469,181.5064 678.95971,191.30691 593.45045,201.10743 484.20201,88.77143 473.2931,-6.4085236 462.3842,-101.58848 516.54518,-140.06354 597.30985,-195.22496 c 60.64445,-41.41951 184.91847,-195.12174 197.1372,41.83093 z"
       style="opacity:1;fill:url(#linearGradient4945);fill-opacity:1;stroke:none;stroke-width:4;stroke-linejoin:round;stroke-miterlimit:4;stroke-dasharray:none;stroke-opacity:1" />
    <path
       style="opacity:1;fill:url(#linearGradient4941);fill-opacity:1;stroke:none;stroke-width:4;stroke-linejoin:round;stroke-miterlimit:4;stroke-dasharray:none;stroke-opacity:1"
       d="M 784.00264,-142.87641 C 788.68923,-51.991356 755.52572,175.25415 674.29825,184.56392 593.07078,193.87368 489.29287,87.162813 478.93021,-3.2510843 468.56756,-93.664985 520.01647,-130.21343 596.73693,-182.6127 c 57.60772,-39.34545 175.65883,-185.35118 187.26571,39.73629 z"
       id="path4932"
       inkscape:connector-curvature="0"
       sodipodi:nodetypes="sssss" />
    <circle
       transform="matrix(-0.99349589,0.113868,0.113868,0.99349589,0,0)"
       style="opacity:1;fill:#000000;fill-opacity:1;stroke:#ffffff;stroke-width:6.0120573;stroke-linejoin:round;stroke-miterlimit:4;stroke-dasharray:none;stroke-opacity:1"
       id="circle4993"
       cx="-643.72498"
       cy="108.0137"
       r="76.796021" />
    <path
       sodipodi:nodetypes="sssss"
       inkscape:connector-curvature="0"
       id="path4983"
       d="M 779.32393,-136.18655 C 783.0322,-60.893714 775.66736,38.129482 673.36514,49.854692 606.08087,57.566374 489.13277,70.288655 480.54893,-4.6051364 469.75766,-98.758792 538.23714,-135.54541 601.78805,-178.95002 c 47.71899,-32.59157 166.00492,-191.3619 177.53588,42.76347 z"
       style="opacity:1;fill:url(#linearGradient4985);fill-opacity:1;stroke:none;stroke-width:4;stroke-linejoin:round;stroke-miterlimit:4;stroke-dasharray:none;stroke-opacity:1" />
    <path
       transform="matrix(-1.2675883,0.41771296,0.41771296,1.2675883,1995.5372,-556.52772)"
       sodipodi:nodetypes="scsss"
       inkscape:connector-curvature="0"
       id="path4995"
       d="m 821.95158,-102.22425 c 0,29.780072 -43.86468,41.128236 -43.86468,41.128236 0,0 26.5446,-4.496668 26.5446,-34.276721 0,-29.780055 -14.31174,-49.999995 -2.94118,-49.999995 11.37057,-1e-5 20.26126,13.36843 20.26126,43.14848 z"
       style="opacity:1;fill:#cedde0;fill-opacity:1;stroke:none;stroke-width:4;stroke-linejoin:round;stroke-miterlimit:4;stroke-dasharray:none;stroke-opacity:1;filter:url(#filter4870)" />
    <path
       transform="matrix(-1.1253966,-0.1414913,-0.1414913,1.1253966,1807.4052,65.408458)"
       sodipodi:nodetypes="sssss"
       inkscape:connector-curvature="0"
       id="path4997"
       d="m 773.843,-106.18249 c -5.80277,92.582292 -65.763,318.86217 -149.10176,318.86217 -83.33875,0 -176.04784,-120.110223 -176.04784,-212.87418174 0,-92.76396026 56.34387,-123.80460826 140.11972,-167.96401826 62.90546,-33.15831 199.40113,-167.31481 185.02988,61.97603 z"
       style="opacity:1;fill:#9abebe;fill-opacity:1;stroke:none;stroke-width:4;stroke-linejoin:round;stroke-miterlimit:4;stroke-dasharray:none;stroke-opacity:1;filter:url(#filter4973)" />
    <path
       style="opacity:1;fill:url(#linearGradient5007);fill-opacity:1;stroke:none;stroke-width:4;stroke-linejoin:round;stroke-miterlimit:4;stroke-dasharray:none;stroke-opacity:1"
       d="m 967.40461,-152.66687 c -5.98135,95.616167 26.30784,335.2087 111.70459,345.94527 85.3968,10.73657 195.8691,-100.39599 207.8199,-195.4507421 11.9509,-95.0547539 -41.7854,-134.1207679 -121.941,-190.1635679 -60.187,-42.08129 -182.76998,-197.13558 -197.58349,39.66904 z"
       id="path4999"
       inkscape:connector-curvature="0"
       sodipodi:nodetypes="sssss" />
    <path
       sodipodi:nodetypes="sssss"
       inkscape:connector-curvature="0"
       id="path5001"
       d="m 977.73318,-142.03549 c -5.68184,90.828278 24.99052,318.42342 106.11102,328.62236 81.1206,10.19896 186.0612,-95.368746 197.4137,-185.66370458 11.3524,-90.29496842 -39.6932,-127.40479542 -115.835,-180.64127542 -57.1733,-39.97412 -173.61798,-187.2642 -187.68972,37.68262 z"
       style="opacity:1;fill:url(#linearGradient5009);fill-opacity:1;stroke:none;stroke-width:4;stroke-linejoin:round;stroke-miterlimit:4;stroke-dasharray:none;stroke-opacity:1" />
    <circle
       cy="-102.20406"
       cx="1103.8257"
       id="circle5003"
       style="opacity:1;fill:#000000;fill-opacity:1;stroke:#ffffff;stroke-width:6.0120573;stroke-linejoin:round;stroke-miterlimit:4;stroke-dasharray:none;stroke-opacity:1"
       transform="matrix(0.992189,0.12474368,-0.12474368,0.992189,0,0)"
       r="76.796021" />
    <path
       style="opacity:1;fill:url(#linearGradient5011);fill-opacity:1;stroke:none;stroke-width:4;stroke-linejoin:round;stroke-miterlimit:4;stroke-dasharray:none;stroke-opacity:1"
       d="m 982.33833,-135.29477 c -4.53278,75.247699 1.74695,174.345626 103.91447,187.190732 67.1958,8.448229 183.9976,22.450775 193.4013,-52.34449779 11.822,-94.02980221 -56.2504,-131.56432421 -119.3222,-175.66245421 -47.3591,-33.11232 -163.89874,-193.1688 -177.99357,40.81622 z"
       id="path5005"
       inkscape:connector-curvature="0"
       sodipodi:nodetypes="sssss" />
    <path
       style="opacity:1;fill:url(#linearGradient5027);fill-opacity:1;stroke:none;stroke-width:4;stroke-linejoin:round;stroke-miterlimit:4;stroke-dasharray:none;stroke-opacity:1"
       d="m 615.11248,320.15727 c 16.9265,43.66452 4.149,115.42698 -48.19049,114.85419 -69.70951,-0.76288 -71.39335,-56.60799 -71.39335,-102.24824 0,-45.64025 74.96301,-123.25816 74.96301,-123.25816 8.88889,39.7369 28.55733,69.21394 44.62083,110.65221 z"
       id="path5013"
       inkscape:connector-curvature="0"
       sodipodi:nodetypes="ssscs" />
    <path
       style="opacity:1;fill:#ffffff;fill-opacity:1;stroke:none;stroke-width:4;stroke-linejoin:round;stroke-miterlimit:4;stroke-dasharray:none;stroke-opacity:1"
       d="m 603.17463,361.88602 c -10e-6,25.42263 -16.10909,47.61904 -26.19048,47.61904 -10.08139,0 2.38095,-23.78371 2.38095,-49.20634 0,-25.42264 0.23607,-42.85715 10.31746,-42.85715 10.08139,0 13.49207,19.02182 13.49207,44.44445 z"
       id="path5018"
       inkscape:connector-curvature="0"
       sodipodi:nodetypes="sssss" />
  </g>
</svg>
